<svg xmlns="http://www.w3.org/2000/svg" height="24" viewBox="0 -960 960 960" width="24"><path d="M212.309-140.001q-29.923 0-51.115-21.193-21.193-21.192-21.193-51.115V-480q0-70.769 26.77-132.615 26.769-61.846 72.768-107.846 46-45.999 107.846-72.768 61.846-26.77 132.615-26.77t132.615 26.77q61.846 26.769 107.846 72.768 45.999 46 72.768 107.846 26.77 61.846 26.77 132.615v267.691q0 29.923-21.193 51.115-21.192 21.193-51.115 21.193H690.77q-29.923 0-51.115-21.193-21.192-21.192-21.192-51.115v-138.46q0-29.922 21.192-51.115 21.192-21.192 51.115-21.192H760V-480q0-117-81.5-198.5T480-760q-117 0-198.5 81.5T200-480v56.924h69.23q29.923 0 51.115 21.192 21.192 21.193 21.192 51.115v138.46q0 29.923-21.192 51.115-21.192 21.193-51.115 21.193h-56.921Zm0-59.999h56.921q5.385 0 8.847-3.462 3.462-3.462 3.462-8.847v-138.46q0-5.385-3.462-8.846-3.462-3.462-8.847-3.462H200v150.768q0 5.385 3.462 8.847 3.462 3.462 8.847 3.462Zm478.461 0h56.921q5.385 0 8.847-3.462 3.462-3.462 3.462-8.847v-150.768h-69.23q-5.385 0-8.847 3.462-3.462 3.461-3.462 8.846v138.46q0 5.385 3.462 8.847Q685.385-200 690.77-200Zm-478.461 0H200h81.539-69.23Zm478.461 0h-12.309H760h-69.23Z"/></svg>